<svg xmlns="http://www.w3.org/2000/svg" data-name="Layer 1" viewBox="0 0 100 100" x="0px" y="0px"><defs fill="#ffffff"><style>.cls-1{fill-rule:evenodd;}</style></defs><title>a</title><path class="cls-1" d="M23.184,59.455a1.364,1.364,0,0,1-1.928,1.929l-5.745-5.746a1.362,1.362,0,0,1,0-1.928l5.745-5.745a1.363,1.363,0,0,1,1.928,1.928L18.4,54.674l4.781,4.781Zm14.109-9.562a1.363,1.363,0,0,1,1.928-1.928l5.746,5.745a1.364,1.364,0,0,1,0,1.928l-5.746,5.746a1.364,1.364,0,0,1-1.928-1.929l4.782-4.781-4.782-4.781ZM86.811,12.339A36.2,36.2,0,0,0,72.262,9.617a36.2,36.2,0,0,0-14.55,2.722c-3.374,1.536-5.461,3.538-5.461,5.644s2.087,4.108,5.461,5.644a36.222,36.222,0,0,0,14.55,2.721,36.213,36.213,0,0,0,14.549-2.721c3.375-1.536,5.462-3.539,5.462-5.644s-2.087-4.108-5.462-5.644ZM58.111,41.6a1.362,1.362,0,1,1-1.023,2.524q-.386-.157-.9-.393-.472-.214-.853-.409a1.36,1.36,0,1,1,1.225-2.429c.267.136.52.258.757.366.208.095.474.208.8.341Zm0-11.8a1.362,1.362,0,1,1-1.023,2.525q-.386-.158-.9-.394-.472-.214-.853-.408A1.36,1.36,0,0,1,56.556,29.1c.267.136.52.258.757.366.208.094.474.208.8.34Zm0,23.6a1.362,1.362,0,0,1-1.023,2.525q-.386-.157-.9-.394-.472-.215-.853-.408a1.36,1.36,0,1,1,1.225-2.429c.267.135.52.257.757.366.208.094.474.208.8.34ZM29.189,63.882a1.362,1.362,0,1,1-2.631-.7L31.3,45.466a1.362,1.362,0,0,1,2.631.7L29.189,63.882Zm62.03-3.85C93.612,58.28,95,56.145,95,53.8V17.983c0-3.268-2.7-6.13-7.059-8.116A38.961,38.961,0,0,0,72.262,6.89,38.958,38.958,0,0,0,56.583,9.867c-3.834,1.745-6.381,4.167-6.942,6.947H9.789A4.8,4.8,0,0,0,5,21.6V88.321A4.8,4.8,0,0,0,9.789,93.11H86.43a4.8,4.8,0,0,0,4.789-4.789V60.032Zm-2.232-1.756a1.368,1.368,0,0,1,.252-.165c1.918-1.287,3.034-2.771,3.034-4.31V47.239a16.9,16.9,0,0,1-4.332,2.74,38.944,38.944,0,0,1-15.679,2.977,38.941,38.941,0,0,1-15.679-2.977,16.9,16.9,0,0,1-4.332-2.74V53.8c0,2.1,2.087,4.108,5.461,5.644a36.2,36.2,0,0,0,14.55,2.722,36.2,36.2,0,0,0,14.549-2.722,17.517,17.517,0,0,0,2.176-1.169ZM49.524,35.363H7.727V88.321a2.073,2.073,0,0,0,2.062,2.062H86.43a2.071,2.071,0,0,0,2.061-2.062V61.656c-.18.089-.364.175-.55.26a38.944,38.944,0,0,1-15.679,2.978,38.94,38.94,0,0,1-15.679-2.978c-4.362-1.985-7.059-4.847-7.059-8.115V35.363Zm2.8,0h-.069v6.5c0,2.106,2.087,4.108,5.461,5.644a36.2,36.2,0,0,0,14.55,2.722,36.2,36.2,0,0,0,14.549-2.722c3.375-1.536,5.462-3.538,5.462-5.644V35.3a16.873,16.873,0,0,1-4.332,2.74,38.944,38.944,0,0,1-15.679,2.978,38.94,38.94,0,0,1-15.679-2.978,16.993,16.993,0,0,1-4.263-2.678Zm1.349-2.45a4.358,4.358,0,0,1-1.418-2.987V23.358a16.9,16.9,0,0,0,4.332,2.74,38.94,38.94,0,0,0,15.679,2.978A38.944,38.944,0,0,0,87.941,26.1a16.9,16.9,0,0,0,4.332-2.74v6.568c0,2.105-2.087,4.108-5.462,5.644a36.212,36.212,0,0,1-14.549,2.722,36.221,36.221,0,0,1-14.55-2.722,14,14,0,0,1-3.791-2.409,1.409,1.409,0,0,0-.252-.248ZM37.023,27.25h12.5v5.386H7.727V21.6a2.071,2.071,0,0,1,2.062-2.061H49.524v4.981h-12.5a1.364,1.364,0,1,0,0,2.727Zm-22.579,0a1.364,1.364,0,0,1,0-2.727h0a1.364,1.364,0,1,1,0,2.727Zm7.259,0a1.364,1.364,0,0,1,0-2.727h0a1.364,1.364,0,1,1,0,2.727Zm7.259,0a1.364,1.364,0,1,1,0-2.727h0a1.364,1.364,0,1,1,0,2.727ZM16.475,73.242a1.364,1.364,0,1,1,0-2.727H79.744a1.364,1.364,0,0,1,0,2.727Zm0,8.349a1.364,1.364,0,1,1,0-2.728H79.744a1.364,1.364,0,0,1,0,2.728Z" fill="#ffffff"/></svg>