<svg xmlns="http://www.w3.org/2000/svg" xmlns:xlink="http://www.w3.org/1999/xlink" version="1.1" x="0px" y="0px" viewBox="0 0 100 100" style="enable-background:new 0 0 100 100;" xml:space="preserve"><path d="M30.92,52.22c0.05-0.95-0.28-1.86-0.92-2.56c-1.32-1.45-3.57-1.55-5.02-0.24L12.9,60.44c-0.74,0.67-1.16,1.63-1.16,2.63  s0.42,1.96,1.16,2.63L24.99,76.7c0.65,0.6,1.5,0.93,2.39,0.93c1,0,1.96-0.42,2.63-1.16c0.64-0.7,0.97-1.61,0.92-2.56  c-0.04-0.95-0.46-1.82-1.16-2.46l-9.21-8.38l9.21-8.38C30.47,54.04,30.88,53.17,30.92,52.22z M28.29,53.06L17.3,63.07l10.99,10  c0.27,0.24,0.42,0.58,0.44,0.94c0.02,0.36-0.11,0.71-0.35,0.98c-0.48,0.53-1.38,0.58-1.91,0.09L14.37,64.07  c-0.28-0.26-0.44-0.62-0.44-1c0-0.38,0.16-0.75,0.44-1l12.09-11.01c0.26-0.24,0.59-0.35,0.91-0.35c0.37,0,0.74,0.15,1,0.44  c0.24,0.27,0.37,0.61,0.35,0.97C28.71,52.48,28.56,52.82,28.29,53.06z M55.62,73.91c-0.04,0.95,0.28,1.86,0.92,2.56  c0.67,0.74,1.63,1.16,2.63,1.16c0.88,0,1.73-0.33,2.39-0.93l12.09-11.01c0.74-0.67,1.16-1.63,1.16-2.63s-0.42-1.95-1.16-2.63  L61.56,49.43c-0.7-0.64-1.6-0.97-2.56-0.92c-0.95,0.05-1.82,0.46-2.46,1.16c-0.64,0.7-0.97,1.61-0.92,2.56  c0.05,0.95,0.46,1.82,1.16,2.46l9.21,8.38l-9.21,8.38C56.08,72.08,55.67,72.96,55.62,73.91z M58.26,73.07l10.99-10L58.26,53.06  c-0.27-0.24-0.42-0.58-0.44-0.94c-0.02-0.36,0.11-0.71,0.35-0.98c0.24-0.27,0.57-0.42,0.94-0.44c0.02,0,0.04,0,0.07,0  c0.34,0,0.66,0.12,0.91,0.35l12.09,11.01c0.28,0.26,0.44,0.62,0.44,1s-0.16,0.75-0.44,1L60.08,75.07c-0.54,0.49-1.43,0.45-1.91-0.09  c-0.24-0.27-0.37-0.61-0.35-0.97C57.83,73.65,57.99,73.31,58.26,73.07z M36.5,77.36c0.43,0.18,0.88,0.27,1.35,0.27  c1.45,0,2.74-0.87,3.29-2.2l9.04-22.02c0.74-1.81-0.13-3.89-1.94-4.63c-1.81-0.74-3.89,0.13-4.63,1.94l-9.04,22.02  C33.82,74.53,34.68,76.61,36.5,77.36z M36.59,73.56l9.04-22.02c0.21-0.52,0.72-0.84,1.26-0.84c0.17,0,0.34,0.03,0.51,0.1  c0.69,0.28,1.02,1.08,0.74,1.77L39.1,74.59c-0.28,0.67-1.08,1.02-1.77,0.74C36.64,75.04,36.31,74.25,36.59,73.56z M93.76,0.02H19.68  c-2.34,0-4.24,1.89-4.24,4.23v13.18h-9.2C3.9,17.43,2,19.32,2,21.65v74.1c0,2.34,1.9,4.23,4.24,4.23h74.08  c2.33,0,4.23-1.89,4.23-4.23V82.57h9.22c2.33,0,4.24-1.89,4.24-4.22V4.25C98,1.91,96.09,0.02,93.76,0.02z M82.35,95.75  c0,1.12-0.91,2.03-2.03,2.03H6.24c-1.13,0-2.04-0.91-2.04-2.03v-67.4h78.16V95.75z M82.35,26.15H4.19v-4.5  c0-1.11,0.91-2.02,2.04-2.02h74.08c1.12,0,2.03,0.91,2.03,2.02V26.15z M95.81,78.35c0,1.11-0.92,2.02-2.04,2.02h-9.22V21.65  c0-2.33-1.9-4.22-4.23-4.22H17.64V4.25c0-1.12,0.91-2.03,2.04-2.03h74.08c1.12,0,2.04,0.91,2.04,2.03V78.35z M66.24,22.89  c0,0.85-0.69,1.54-1.54,1.54c-0.85,0-1.54-0.69-1.54-1.54c0-0.86,0.69-1.54,1.54-1.54C65.55,21.35,66.24,22.04,66.24,22.89z   M72.55,22.89c0,0.85-0.68,1.54-1.54,1.54c-0.85,0-1.54-0.69-1.54-1.54c0-0.86,0.69-1.54,1.54-1.54  C71.87,21.35,72.55,22.04,72.55,22.89z M78.88,22.89c0,0.85-0.69,1.54-1.54,1.54s-1.54-0.69-1.54-1.54c0-0.86,0.69-1.54,1.54-1.54  S78.88,22.04,78.88,22.89z M79.32,6.12c0,0.86-0.69,1.54-1.54,1.54s-1.54-0.68-1.54-1.54c0-0.85,0.69-1.54,1.54-1.54  S79.32,5.27,79.32,6.12z M85.64,6.12c0,0.86-0.68,1.54-1.54,1.54c-0.85,0-1.54-0.68-1.54-1.54c0-0.85,0.69-1.54,1.54-1.54  C84.96,4.58,85.64,5.27,85.64,6.12z M91.96,6.12c0,0.86-0.69,1.54-1.54,1.54s-1.54-0.68-1.54-1.54c0-0.85,0.69-1.54,1.54-1.54  S91.96,5.27,91.96,6.12z M10.69,84.29c0-0.61,0.49-1.1,1.1-1.1h17.83c0.61,0,1.1,0.49,1.1,1.1s-0.49,1.1-1.1,1.1H11.79  C11.19,85.39,10.69,84.9,10.69,84.29z M10.69,91.97c0-0.61,0.49-1.1,1.1-1.1h31.48c0.61,0,1.1,0.49,1.1,1.1c0,0.61-0.49,1.1-1.1,1.1  H11.79C11.19,93.07,10.69,92.58,10.69,91.97z M10.69,33.61c0-0.61,0.49-1.1,1.1-1.1h11.84c0.61,0,1.1,0.49,1.1,1.1  c0,0.61-0.49,1.1-1.1,1.1H11.79C11.19,34.71,10.69,34.22,10.69,33.61z M10.69,41.3c0-0.61,0.49-1.1,1.1-1.1h20.9  c0.61,0,1.1,0.49,1.1,1.1c0,0.61-0.49,1.1-1.1,1.1h-20.9C11.19,42.39,10.69,41.9,10.69,41.3z" fill="#ffffff"/></svg>