<svg xmlns="http://www.w3.org/2000/svg" xmlns:xlink="http://www.w3.org/1999/xlink" version="1.1" x="0px" y="0px" viewBox="0 0 512 512" style="enable-background:new 0 0 512 512;" xml:space="preserve"><path d="M100.4,250c-1.9-3.3-0.8-7.6,2.6-9.6c3.3-1.9,7.6-0.8,9.6,2.6l12.7,22l47.6-47.6c2.7-2.7,7.1-2.7,9.9,0  c2.7,2.7,2.7,7.2,0,9.9l-54.1,54.1l0,0c-3.2,3.2-8.7,2.6-11-1.4L100.4,250z M142.1,171.2c44.9,0,81.2,36.4,81.2,81.2  c0,44.9-36.4,81.2-81.2,81.2s-81.3-36.4-81.3-81.2C60.9,207.6,97.2,171.2,142.1,171.2L142.1,171.2z M189.7,204.9  c-26.2-26.3-68.8-26.3-95.1,0c-26.2,26.2-26.2,68.8,0,95.1c26.3,26.2,68.9,26.2,95.1,0C215.9,273.8,215.9,231.2,189.7,204.9  L189.7,204.9z M387.9,447c-1.9,1.9,4.3,8.1,6.2,6.2l10.9-10.9c1.9-1.9-4.3-8.1-6.2-6.2L387.9,447z M378,437.1l10.9-10.9  c1.9-1.9-4.3-8.1-6.2-6.2l-15.5,15.6c-1.9,1.9,4.3,8.1,6.2,6.2L378,437.1z M403,422.1c11,2.4,19.8,15.1,15.2,25.4  c2.8,2.4,0.9,1.5,3.7-0.3c1.9-1.2,4-3.2,5.1-5.1l1.1,0.7c-0.7-0.8-1-0.8-1.7-1.9l-8.8-12.6c-2.2-3.2-1.4-7.5,1.7-9.8  c3.1-2.2,7.5-1.4,9.8,1.7l8.7,12.4l0.6,0.6l0,0c1.9,1.9,8.1-4.1,6.1-6.1l-19-19.1c-2.7-2.7-2.7-7.1,0-9.9c2.7-2.7,7.2-2.7,9.9,0  l18.9,18.9c1.9,1.9,8.8-3.8,2.9-9.6l-39.4-38.3c-2.3-1.6-4.5-2.5-6.4-2.9c-2.6-0.5-4.9,0.4-7,2.4c-12.5,12.5-28.8,11.7-38.8,3.4  c-6.3-5.2-9.8-14.1-3-20.4c2.9-2.7,7.9-2,17.3-13.9l-14.9-3.1c-3.2-0.6-4.6-2.6-7.2-5.2l-39,39l3.2,3.2l0,0  c1.1,1.1,8.6,12.8,10,15.1l8.8-8.8c10.5-10.5,27.2-1,30.1,11.9c7.7,1.7,14.4,8.4,16.1,16.1C394.6,407.7,401.2,414.4,403,422.1  L403,422.1z M409.1,458l-5,5.1c-9.3,9.3-23.1,3-28.3-7.2c-8.8,1.8-18.1-4.8-21.5-13.1c-10.2,0.1-20.2-9.9-20.1-20.1  c-9.7-4-16.7-15.8-11.8-25.2l-10.7-16.4l-7.7-7.7c-2.7-2.7-2.7-7.2,0-9.9l48.9-48.9c2.7-2.7,7.1-2.7,9.9,0l6.7,6.7l21.7,4.6  c1.6-0.9,3.4-1.6,5.5-2.3c2.5-0.8,8.8-2.3,12.5-2.4l21.9-0.5l6.2-6.2c2.7-2.7,7.2-2.7,9.9,0l48.9,48.9c2.7,2.7,2.7,7.2,0,9.9  l-8.3,8.3l-17.5,19.7c8.2,12.2,0.3,27-11.7,29.7c-1.8,8.5-9.9,15.9-18.6,16.4c-4.8,9.9-19.8,20.2-29.3,11.7  C410,458.9,409.5,458.5,409.1,458L409.1,458z M366.7,404l-18.2,18.2c-1.9,1.9,4.3,8.1,6.2,6.2l18.2-18.2  C374.8,408.3,368.6,402.1,366.7,404L366.7,404z M477.9,371.7l3.2-3.2l-39-39l-3.2,3.2h0c-1.2,1.2-2.9,2-4.8,2l-24.4,0.5  c-2.9,0.2-11.7,2.1-12.6,3.2c-7,8.4-11.3,16.4-22.9,22.7c5.2,4.4,13.6,4.4,20.4-2.3c9.3-9.4,21.9-8.2,32-0.5  c2.2,1.6,4.5,3.5,6.8,5.8l27.2,27.1l16.7-18.8C477.4,372.3,477.6,372,477.9,371.7L477.9,371.7z M350.6,387.9l-15.5,15.6  c-1.9,1.9,4.3,8.1,6.2,6.2l15.5-15.6C358.7,392.2,352.5,386,350.6,387.9L350.6,387.9z M428.4,443.2l-1-0.7  C428,442.9,429,443.8,428.4,443.2L428.4,443.2z M397.7,112.2c2.5,0,5,0.1,7.5,0.4c-1.2-30.2-26.1-54.2-56.5-54.2  c-38.6,0-65.7,37.9-53.8,74.3c1.9,5.6,4.6,10.9,8,15.6c1.8,2.1,2.2,5.2,0.7,7.8l-5.6,10.2l11.6-5.4l0,0c2.2-1,4.8-0.9,6.9,0.6  c3.8,2.6,7.9,4.8,12.2,6.4C335.5,135.8,364.1,112.2,397.7,112.2L397.7,112.2z M419.2,115.6c19.3,6.2,35.2,20.6,43.3,39.2l24.8,1.8  c6.7,0.5,9.1,9.4,2.9,13.1l-21.9,13.8c-0.4,38.6-31.9,69.8-70.6,69.8c-39.2,0-70.9-31.9-70.6-71.2c-5.4-1.7-10.4-4.1-15.1-6.9  l-27.4,12.6c-6.1,2.8-12.3-3.9-9.1-9.7l13.7-25c-17.9-27.9-14-64.5,9.5-88c27.6-27.6,72.2-27.6,99.8,0  C411.4,78,419.3,95.9,419.2,115.6L419.2,115.6z M430.2,136.5c-3.9-2.7-8.1-5-12.6-6.7c-7.5,34.9-40.3,59.2-76.5,55.3  c1.2,30.2,26.1,54.2,56.5,54.2c31.7,0,57.3-26.2,56.6-57.9c0-0.3,0-0.7-0.1-1.2c-0.2-2.5,1-5,3.2-6.4l7.7-4.8l-8.1-0.6  c-2.7-0.2-5.1-1.9-6.1-4.6C447,152.7,439.7,143.2,430.2,136.5L430.2,136.5z M404,126.6c-29.3-3.3-55.8,16.4-61.7,44.6  C371.6,174.4,398.1,154.8,404,126.6L404,126.6z M67.8,451.9C75.2,338,40.6,357.7,20,289c-7.6-25.2-8.3-46.5,0-71.9  c21.3-65.2,81.6-93.7,146.8-85.7c15.4,1.9,30.9,5.8,46.1,11.8c26.6,10.4,52.6,38.4,62,64.9c7.3,20.6,9.7,35.8,5.5,57.5  c-1.2,6.3-1.4,7.9,3,14.5l0,0c7,10.2,14.3,19.3,20.4,29.9c10.5,18.3,6.1,26.1-3.5,31.6c-9.6,5.5-24.3,6.2-24.8,21.3  c-0.6,16.2,4.8,31.4-5.4,44.8c-9.1,11.9-23.4,10.8-36.3,11.3c-5.7,0.2-12.3,0.5-18.1,1.1c-17.4,1.8-19.2,20.7-20.8,33.6  c-0.5,3.5-3.5,6.1-6.9,6.1v0H74.7C70.5,459.8,67.2,456.1,67.8,451.9L67.8,451.9z M56.9,331.7c15.6,22.6,29.1,42.1,25.3,114.1h99.7  c2.3-16.5,6.9-37,32.4-39.6c7.9-0.8,15.2-1,23.4-1.3c8.3-0.2,17.3-0.4,21.3-5.7c4.1-5.3,3.6-12.9,3-21.7c-0.3-4.6-0.7-9.6-0.4-15.1  c0.8-20.6,14-25.7,25.3-30.1c8-3.1,11.8-3.5,4.9-15.4c-5.6-9.7-13.5-19.8-19.8-29l0,0c-8.9-12.7-6.8-15.9-4.6-28  c3.1-17.1,0.2-31-5.6-47.2c-8.1-22.7-31.1-47.7-53.9-56.6c-70-27.3-152.4-9.9-175.6,68.5c-6.4,21.7-5.2,39.1,1.2,60.3  C40.1,307.5,48.8,320,56.9,331.7L56.9,331.7z" fill="#ffffff"/></svg>