<svg xmlns="http://www.w3.org/2000/svg" viewBox="0 0 100 100" x="0px" y="0px"><title>SCHOOL_ICONS_100</title><path d="M77.18,65.7,58.44,47,77,28.42l3.57-1.64a1.5,1.5,0,0,0,.55-.43l8-10.08a1.5,1.5,0,0,0-.11-2L82.94,8.22a1.5,1.5,0,0,0-2-.12l-9.9,7.81a1.5,1.5,0,0,0-.42.53l-1.82,3.78L50.26,38.78,38,26.54A14.13,14.13,0,0,0,34.24,12.7,13.94,13.94,0,0,0,18,9.9a1.5,1.5,0,0,0-.35,2.38l6.59,6.59L22,21.12l-6.59-6.59a1.5,1.5,0,0,0-2.38.35,13.94,13.94,0,0,0,2.8,16.25,14.12,14.12,0,0,0,13.85,3.79l8.49,8.49-2,2a1.5,1.5,0,0,0,0,2.12,1.89,1.89,0,0,1,.57,1.24,1.34,1.34,0,0,1-.37,1,1.32,1.32,0,0,1-1,.37,1.88,1.88,0,0,1-1.24-.57A1.5,1.5,0,0,0,33,49.14h0a1.5,1.5,0,0,0-1.06.44L8.43,73.13a10.77,10.77,0,0,0-.12,14.76,11.61,11.61,0,0,0,8.26,3.95h.32a9.77,9.77,0,0,0,7-2.84L47.64,65.24a1.5,1.5,0,0,0,0-2.12,1.9,1.9,0,0,1-.57-1.24,1.33,1.33,0,0,1,.37-1,1.64,1.64,0,0,1,2.28.2,1.5,1.5,0,0,0,2.12,0l2-2,15,15A14.12,14.12,0,0,0,72.6,87.92a14.51,14.51,0,0,0,10.19,4.29,12.75,12.75,0,0,0,6-1.49,1.5,1.5,0,0,0,.35-2.38l-6.58-6.59,2.25-2.25,6.59,6.58a1.5,1.5,0,0,0,2.38-.35C96.6,80.58,95.44,73.9,91,69.49A14.1,14.1,0,0,0,77.18,65.7ZM71.11,22.16a1.5,1.5,0,0,0,.29-.41l1.78-3.7,8.58-6.77,4.17,4.17-7,8.75-3.48,1.6a1.49,1.49,0,0,0-.43.3L55.26,45.9h0l-3.92,3.92L47.4,45.88,51.32,42h0ZM29.53,31.8A11,11,0,0,1,17.93,29a11.2,11.2,0,0,1-3.06-10.76l6,6a1.5,1.5,0,0,0,2.12,0l4.37-4.37a1.5,1.5,0,0,0,0-2.12l-6-6a11.2,11.2,0,0,1,10.76,3.06,11,11,0,0,1,2.79,11.6A1.5,1.5,0,0,0,35.25,28L48.14,40.9l-2.86,2.86-.18-.18a5.37,5.37,0,0,0-.71-.59l-.2-.13a5.25,5.25,0,0,0-.76-.41l0,0a5.1,5.1,0,0,0-.85-.26l-.21,0a4.93,4.93,0,0,0-.85-.09H41l-9.92-9.92A1.5,1.5,0,0,0,29.53,31.8ZM51.74,56.9,50.6,58a4.52,4.52,0,0,0-5.29.7A4.3,4.3,0,0,0,44.07,62a4.79,4.79,0,0,0,.55,2L21.76,86.88a6.77,6.77,0,0,1-5.1,2,8.6,8.6,0,0,1-6.11-2.94,7.77,7.77,0,0,1,0-10.64L33.2,52.6a4.8,4.8,0,0,0,2,.54,4.28,4.28,0,0,0,4.53-4.53,4.78,4.78,0,0,0-.55-2l1.13-1.13a1.47,1.47,0,0,1,.64-.37,2.11,2.11,0,0,1,2,.59l1.92,1.92L50.28,53h0l1.24,1.24a2.08,2.08,0,0,1,.59,2h0A1.51,1.51,0,0,1,51.74,56.9ZM92,82.36l-6-6a1.5,1.5,0,0,0-2.12,0l-4.37,4.37a1.5,1.5,0,0,0,0,2.12l6,6A11.19,11.19,0,0,1,74.72,85.8a11,11,0,0,1-2.79-11.6,1.5,1.5,0,0,0-.34-1.59L55.17,56.19c0-.08,0-.16,0-.25s0-.14,0-.21a4.84,4.84,0,0,0,0-.48s0-.09,0-.13a5,5,0,0,0-.12-.6L55,54.35c0-.15-.09-.29-.15-.43l-.09-.2c-.06-.13-.12-.25-.19-.37l-.11-.2c-.08-.13-.16-.25-.25-.37l-.12-.16a5.47,5.47,0,0,0-.43-.49L53.55,52l-.09-.09,1.43-1.43,1.43-1.43,19.4,19.4a1.5,1.5,0,0,0,1.59.34,11,11,0,0,1,11.6,2.79A11.19,11.19,0,0,1,92,82.36Z" fill="#ffffff"/></svg>